<svg xmlns="http://www.w3.org/2000/svg" viewBox="0 0 283 78"><path fill="white" d="M3,3H75V75H3ZM0,0V78H78V0Z"/><polygon fill="white" points="69,10 40,10 22,39 40,68 69,68 51,39"/><path fill="white" d="M109,61h6c7,0,14-2,14-9 0-9-8-10-15-10h-5Zm0-26h5c8,0,15-1,15-9 0-7-6-9-11-9h-9ZM101,10h16c12,0,20,4,20,15 0,8-5,12-12,14v0c8,1,13,6,13,14 0,12-10,15-22,15H101Z"/><polygon fill="white" points="151,10 159,10 159,61 183,61 183,68 151,68"/><polygon fill="white" points="191,10 199,10 199,35 224,10 235,10 208,37 237,68 225,68 199,39 199,68 191,68"/><path fill="white" d="M254,61h6c7,0,14-2,14-9 0-9-8-10-15-10h-5Zm0-26h5c8,0,15-1,15-9 0-7-6-9-11-9h-9ZM246,10h16c12,0,20,4,20,15 0,8-5,12-12,14v0c8,1,13,6,13,14 0,12-10,15-22,15H246Z"/></svg>
